<svg xmlns="http://www.w3.org/2000/svg" width="1000" height="1000" viewBox="0 0 1000 1000">
<rect width="100%" height="100%" fill="black" />
<line x1="375" y1="125" x2="625" y2="125" stroke="white" stroke-width="12" stroke-linecap="round" />
<line x1="250" y1="875" x2="250" y2="875" stroke="white" stroke-width="12" stroke-linecap="round" />
<line x1="250" y1="500" x2="250" y2="875" stroke="white" stroke-width="12" stroke-linecap="round" />
<line x1="250" y1="250" x2="375" y2="250" stroke="white" stroke-width="12" stroke-linecap="round" />
<line x1="375" y1="125" x2="375" y2="250" stroke="white" stroke-width="12" stroke-linecap="round" />
<line x1="750" y1="875" x2="750" y2="875" stroke="white" stroke-width="12" stroke-linecap="round" />
<line x1="750" y1="500" x2="750" y2="875" stroke="white" stroke-width="12" stroke-linecap="round" />
<line x1="625" y1="250" x2="750" y2="250" stroke="white" stroke-width="12" stroke-linecap="round" />
<line x1="250" y1="500" x2="750" y2="500" stroke="white" stroke-width="12" stroke-linecap="round" />
<line x1="250" y1="250" x2="250" y2="500" stroke="white" stroke-width="12" stroke-linecap="round" />
<line x1="250" y1="250" x2="250" y2="875" stroke="white" stroke-width="12" stroke-linecap="round" />
<line x1="750" y1="250" x2="750" y2="875" stroke="white" stroke-width="12" stroke-linecap="round" />
<line x1="625" y1="125" x2="625" y2="250" stroke="white" stroke-width="12" stroke-linecap="round" />
<line x1="750" y1="250" x2="750" y2="500" stroke="white" stroke-width="12" stroke-linecap="round" />
</svg>